FFmpeg version SVN-r25716, Copyright (c) 2000-2010 the FFmpeg developers  built on Nov 10 2010 12:23:18 with gcc 4.1.2 20080704 (Red Hat 4.1.2-48)  configuration: --enable-libmp3lame --enable-shared --disable-mmx --arch=x86_64  libavutil     50.33. 0 / 50.33. 0  libavcore      0.12. 1 /  0.12. 1  libavcodec    52.94. 4 / 52.94. 4  libavformat   52.84. 0 / 52.84. 0  libavdevice   52. 2. 2 / 52. 2. 2  libavfilter    1.59. 0 /  1.59. 0  libswscale     0.12. 0 /  0.12. 0Input #0, avi, from '/RAID10/data/converted_video_files/47393.avi':  Duration: 00:00:02.40, start: 0.000000, bitrate: 20983 kb/s    Stream #0.0: Video: msvideo1, rgb555le, 1024x1024, 20 tbr, 20 tbn, 20 tbc[buffer @ 0x19faba0] w:1024 h:1024 pixfmt:rgb555le[ffsink @ 0x1a34f40] auto-inserting filter 'auto-inserted scaler 0' between the filter 'src' and the filter 'out'[scale @ 0x1a35240] w:1024 h:1024 fmt:rgb555le -> w:1024 h:1024 fmt:yuv420p flags:0x4Output #0, flv, to '/RAID10/data/converted_video_files/47393.flv':  Metadata:    encoder         : Lavf52.84.0    Stream #0.0: Video: flv, yuv420p, 1024x1024, q=2-31, 600 kb/s, 1k tbn, 24 tbcStream mapping:  Stream #0.0 -> #0.0Press [q] to stop encodingframe=    8 fps=  0 q=12.3 size=     641kB time=0.37 bitrate=14043.6kbits/s    frame=   18 fps= 15 q=31.0 size=     704kB time=0.88 bitrate=6588.7kbits/s    frame=   27 fps= 16 q=31.0 size=     748kB time=1.33 bitrate=4593.7kbits/s    frame=   38 fps= 17 q=31.0 size=     798kB time=1.87 bitrate=3488.6kbits/s    frame=   47 fps= 17 q=31.0 size=     820kB time=2.33 bitrate=2879.5kbits/s    frame=   48 fps= 17 q=31.0 Lsize=     822kB time=2.38 bitrate=2834.1kbits/s    video:821kB audio:0kB global headers:0kB muxing overhead 0.116374%